<svg width="193" height="193" viewBox="0 0 193 193" fill="none" xmlns="http://www.w3.org/2000/svg">
<path d="M173 0.0872231H19.4C8.79614 0.0872231 0.200012 8.68335 0.200012 19.2872V172.887C0.200012 183.491 8.79614 192.087 19.4 192.087H173C183.604 192.087 192.2 183.491 192.2 172.887V19.2872C192.2 8.68335 183.604 0.0872231 173 0.0872231Z" fill="#001529"/>
<path d="M60.6644 121.88V139.29C68.8346 140.067 77.9061 140.712 87.8788 141.225L86.5892 153.476H105.934L104.901 141.87H108.513C116.94 141.87 123.11 139.891 127.015 135.934C130.928 131.985 132.884 125.793 132.884 117.366V110.918C132.884 102.491 130.906 96.2997 126.956 92.3502C123 88.3933 116.808 86.4149 108.381 86.4149H90.4581C85.2995 86.4149 82.7202 83.8356 82.7202 78.677V76.0977C82.7202 70.9391 85.2995 68.3599 90.4581 68.3599H125.278V50.3049H104.644L105.934 38.6981H86.5892L87.8788 50.3049H85.2995C76.272 50.3049 69.7139 52.3492 65.6325 56.4307C61.5437 60.5121 59.5067 67.0702 59.5067 76.0977V78.677C59.5067 87.7045 61.5437 94.2626 65.6325 98.3441C69.7139 102.425 76.272 104.47 85.2995 104.47H109.671V117.366C109.671 119.345 109.092 120.913 107.934 122.071C106.769 123.236 105.201 123.815 103.223 123.815C94.796 123.815 80.6099 123.17 60.6644 121.88Z" fill="white"/>
</svg>
